<svg xmlns="http://www.w3.org/2000/svg" viewBox="0 0 47.73 62"><defs><style>.cls-1{fill:#bcd7f2;}.cls-2{fill:none;stroke:#2e4369;stroke-linecap:round;stroke-linejoin:round;stroke-width:2px;}</style></defs><title>celsiusAtivo 32</title><g id="Camada_2" data-name="Camada 2"><g id="Layer_1" data-name="Layer 1"><path class="cls-1" d="M34,61A22.07,22.07,0,0,1,12,39V29A22,22,0,0,1,46.73,11l-3.46,4.9A16,16,0,0,0,18,29V39A16,16,0,0,0,43.27,52.08L46.73,57A21.91,21.91,0,0,1,34,61Z"/><circle class="cls-2" cx="7" cy="7" r="6"/><path class="cls-2" d="M34,61A22.07,22.07,0,0,1,12,39V29A22,22,0,0,1,46.73,11l-3.46,4.9A16,16,0,0,0,18,29V39A16,16,0,0,0,43.27,52.08L46.73,57A21.91,21.91,0,0,1,34,61Z"/></g></g></svg>