<svg xmlns="http://www.w3.org/2000/svg" viewBox="0 0 48 62"><defs><style>.cls-1{fill:#bcd7f2;}.cls-2{fill:none;stroke:#2e4369;stroke-linecap:round;stroke-linejoin:round;stroke-width:2px;}</style></defs><title>fahrenheitAtivo 33</title><g id="Camada_2" data-name="Camada 2"><g id="Layer_1" data-name="Layer 1"><polygon class="cls-1" points="47 16 47 10 18 10 18 61 24 61 24 38 39 38 39 32 24 32 24 16 47 16"/><polygon class="cls-2" points="47 16 47 10 18 10 18 61 24 61 24 38 39 38 39 32 24 32 24 16 47 16"/><path class="cls-2" d="M13,7A6,6,0,1,1,7,1,6,6,0,0,1,13,7Z"/></g></g></svg>