<svg xmlns="http://www.w3.org/2000/svg" viewBox="0 0 62 42.02"><defs><style>.cls-1{fill:#fc0;}.cls-2{fill:#fff;opacity:0.5;}.cls-3{fill:none;stroke:#2e4369;stroke-linecap:round;stroke-linejoin:round;stroke-width:2px;}</style></defs><title>sunriseAtivo 1</title><g id="Camada_2" data-name="Camada 2"><g id="Layer_1" data-name="Layer 1"><circle class="cls-1" cx="31" cy="29" r="12"/><path class="cls-2" d="M31.06,17a12,12,0,0,0-9.88,5.11A12,12,0,0,1,37.79,38.88,12,12,0,0,0,31.06,17Z"/><line class="cls-3" x1="31" y1="1" x2="31" y2="9"/><line class="cls-3" x1="59" y1="29" x2="51" y2="29"/><line class="cls-3" x1="11" y1="29" x2="3" y2="29"/><line class="cls-3" x1="61" y1="41.02" x2="1" y2="41.02"/><line class="cls-3" x1="11.79" y1="9.79" x2="17.44" y2="15.44"/><line class="cls-3" x1="50.21" y1="9.79" x2="44.56" y2="15.44"/><path class="cls-3" d="M19.71,33a12,12,0,1,1,22.58.09"/><line class="cls-3" x1="31" y1="41.02" x2="31" y2="25.02"/><polyline class="cls-3" points="37 31.02 31 25.02 25 31.02"/></g></g></svg>