<svg xmlns="http://www.w3.org/2000/svg" viewBox="0 0 62 56.03"><defs><style>.cls-1{fill:#fc0;}.cls-2{fill:#fff;opacity:0.5;}.cls-3{fill:none;stroke:#2e4369;stroke-linecap:round;stroke-linejoin:round;stroke-width:2px;}</style></defs><title>sunsetAtivo 2</title><g id="Camada_2" data-name="Camada 2"><g id="Layer_1" data-name="Layer 1"><path class="cls-1" d="M24.37,39H37.63a12,12,0,1,0-13.26,0Z"/><path class="cls-2" d="M31.06,17a12,12,0,0,0-9.88,5.1A12,12,0,0,1,37.79,38.9,12,12,0,0,0,31.06,17Z"/><line class="cls-3" x1="31" y1="1" x2="31" y2="9"/><line class="cls-3" x1="59" y1="29" x2="51" y2="29"/><line class="cls-3" x1="11" y1="29" x2="3" y2="29"/><line class="cls-3" x1="61" y1="39.02" x2="1" y2="39.02"/><line class="cls-3" x1="11.79" y1="9.79" x2="17.44" y2="15.44"/><line class="cls-3" x1="50.21" y1="9.79" x2="44.55" y2="15.44"/><path class="cls-3" d="M19.71,33a12,12,0,1,1,22.58.08"/><line class="cls-3" x1="31" y1="39.02" x2="31" y2="55.03"/><polyline class="cls-3" points="25 49.03 31 55.02 37 49.03"/></g></g></svg>