<svg xmlns="http://www.w3.org/2000/svg" viewBox="0 0 30 62"><defs><style>.cls-1{fill:#eef5fc;}.cls-2{fill:#90d2ea;}.cls-3{fill:#000064;opacity:0.1;}.cls-4{fill:#fff;opacity:0.5;}.cls-5{fill:none;stroke:#2e4369;stroke-linecap:round;stroke-linejoin:round;stroke-width:2px;}</style></defs><title>temp0Ativo 21</title><g id="Camada_2" data-name="Camada 2"><g id="Layer_1" data-name="Layer 1"><path class="cls-1" d="M23,35.52V9A8,8,0,0,0,7,9V35.52a14,14,0,1,0,16,0Z"/><path class="cls-2" d="M18,41.81V36a3,3,0,0,0-6,0v5.81a6,6,0,1,0,6,0Z"/><path class="cls-3" d="M18,57A14,14,0,0,1,5.49,36.76a14,14,0,1,0,22,16.49A13.91,13.91,0,0,1,18,57Z"/><path class="cls-3" d="M17,50a6,6,0,0,1-6-6,6.26,6.26,0,0,1,.24-1.68,6,6,0,1,0,9.52,6.35A6,6,0,0,1,17,50Z"/><path class="cls-4" d="M18,33h0a3,3,0,0,1-3-3V8a3,3,0,0,1,3-3h0a3,3,0,0,1,3,3V30A3,3,0,0,1,18,33Z"/><circle class="cls-4" cx="20" cy="44" r="5"/><path class="cls-5" d="M23,35.52V9A8,8,0,0,0,7,9V35.52a14,14,0,1,0,16,0Z"/><path class="cls-5" d="M18,41.81V36a3,3,0,0,0-6,0v5.81a6,6,0,1,0,6,0Z"/></g></g></svg>