<svg xmlns="http://www.w3.org/2000/svg" viewBox="0 0 62 46.01"><defs><style>.cls-1{fill:#cdf0f0;}.cls-2{fill:#fff;opacity:0.5;}.cls-3{fill:#000064;opacity:0.1;}.cls-4{fill:none;stroke:#2e4369;stroke-linecap:round;stroke-linejoin:round;stroke-width:2px;}</style></defs><title>udateAtivo 31</title><g id="Camada_2" data-name="Camada 2"><g id="Layer_1" data-name="Layer 1"><path class="cls-1" d="M48,11c-.17,0-.33,0-.5,0a17,17,0,0,0-32.29,4.45A11,11,0,1,0,12,37h8.7a11.8,11.8,0,0,1-.7-4,12,12,0,1,1,23.3,4H48a13,13,0,0,0,0-26Z"/><path class="cls-2" d="M61,24A13,13,0,0,0,48,11c-.17,0-.33,0-.5,0A17,17,0,0,0,35.17,1.3c-.39-.06-.78-.13-1.18-.17l-.25,0A16.75,16.75,0,0,0,32,1a17.38,17.38,0,0,0-3.17.29,16.78,16.78,0,0,0-8.26,4.15A22.87,22.87,0,0,1,42,12.51,13.07,13.07,0,0,0,37.81,16,15,15,0,0,1,58,30a14.42,14.42,0,0,1-.24,2.56A12.93,12.93,0,0,0,61,24Z"/><path class="cls-3" d="M20,33a12,12,0,0,1,.1-1.47A17.91,17.91,0,0,1,15,19a18.09,18.09,0,0,1,.34-3.48l-.16,0A10.78,10.78,0,0,0,12,15a11,11,0,0,0,0,22h8.7A11.8,11.8,0,0,1,20,33Z"/><path class="cls-4" d="M51.77,36.46A13,13,0,0,0,48,11l-.5,0a17,17,0,0,0-32.29,4.45A11,11,0,1,0,12,37"/><path class="cls-4" d="M43.69,34.38A12.44,12.44,0,0,0,43.77,33a12,12,0,1,0-3.52,8.48"/><polyline class="cls-4" points="47.43 28.81 43.7 34.41 38.53 29.74"/></g></g></svg>