<svg id="Capa_1" enable-background="new 0 0 512 512" height="512" viewBox="0 0 512 512" width="512" xmlns="http://www.w3.org/2000/svg"><g><g><g><path d="m345.915 7.5h-179.83c-8.335 0-16.329 3.311-22.222 9.205l-127.158 127.158c-5.894 5.894-9.205 13.887-9.205 22.222v179.829c0 8.335 3.311 16.329 9.205 22.222l127.158 127.158c5.894 5.894 13.887 9.205 22.222 9.205h179.829c8.335 0 16.329-3.311 22.222-9.205l127.158-127.158c5.894-5.894 9.205-13.887 9.205-22.222v-179.829c0-8.335-3.311-16.329-9.205-22.222l-127.157-127.158c-5.894-5.894-13.887-9.205-22.222-9.205z" fill="#fd4755"/><path d="m368.137 16.705c-5.894-5.894-13.887-9.205-22.223-9.205h-66.539c2.978 4.609 6.539 9.822 10.73 15.419 1.053 1.406 2.105 2.774 3.155 4.122h-.639c13.649 16.762 75.273 96.097 64.231 207.008-15.224 152.943-154.52 224.253-163.546 228.681-11.458 5.935-21.782 10.428-30.298 13.796-9.174 3.153-17.25 8.053-23.837 14.077l4.692 4.692c5.894 5.894 13.887 9.205 22.222 9.205h179.829c8.335 0 16.329-3.311 22.222-9.205l127.158-127.158c5.894-5.894 9.205-13.887 9.205-22.222v-179.83c0-8.335-3.311-16.329-9.205-22.222z" fill="#fb2b3a"/><path d="m339.371 37.572h-166.742c-4.549 0-8.912 1.807-12.129 5.024l-117.904 117.904c-3.217 3.217-5.024 7.58-5.024 12.129v166.741c0 4.549 1.807 8.912 5.024 12.129l117.904 117.905c3.217 3.217 7.58 5.024 12.129 5.024h166.741c4.549 0 8.912-1.807 12.129-5.024l117.905-117.904c3.217-3.217 5.024-7.58 5.024-12.129v-166.742c0-4.549-1.807-8.912-5.024-12.129l-117.904-117.904c-3.217-3.216-7.58-5.024-12.129-5.024z" fill="#f5f8f9"/><path d="m351.5 42.596c-3.217-3.217-7.58-5.024-12.129-5.024h-38.603c21.226 28.89 65.593 100.976 56.086 196.477-15.226 152.943-154.522 224.253-163.548 228.681-8.859 4.589-17.029 8.308-24.222 11.319 1.157.245 2.343.378 3.544.378h166.741c4.549 0 8.912-1.807 12.129-5.024l117.906-117.903c3.217-3.217 5.024-7.58 5.024-12.129v-166.742c0-4.549-1.807-8.912-5.024-12.129z" fill="#e8edf2"/></g><circle cx="256" cy="256" fill="#fed402" r="133.792"/><path d="m290.239 385.363c57.302-15.127 99.552-67.307 99.552-129.363 0-34.714-13.223-66.339-34.904-90.117 3.306 20.982 4.391 43.811 1.966 68.167-6.436 64.656-35.046 114.72-66.614 151.313z" fill="#f7bc09"/></g><path d="m256 425.475c4.143 0 7.5-3.357 7.5-7.5v-20.882c33.317-1.751 63.609-15.1 86.914-36.072l14.816 14.816c2.93 2.928 7.679 2.93 10.607 0s2.929-7.678 0-10.607l-14.816-14.816c20.972-23.305 34.32-53.597 36.072-86.914h20.882c4.143 0 7.5-3.357 7.5-7.5s-3.357-7.5-7.5-7.5h-20.882c-1.751-33.317-15.1-63.609-36.072-86.914l14.816-14.816c2.929-2.93 2.929-7.678 0-10.607-2.93-2.928-7.678-2.928-10.607 0l-14.816 14.816c-23.305-20.972-53.597-34.32-86.914-36.072v-20.882c0-4.143-3.357-7.5-7.5-7.5s-7.5 3.357-7.5 7.5v20.903c-11.941.626-23.703 2.722-35.054 6.303-3.95 1.246-6.142 5.459-4.896 9.409 1.245 3.949 5.455 6.144 9.409 4.896 148.543-40.283 225.549 150.668 103.972 228.136-134.666 75.814-256.439-93.43-154.552-197.614 7.735-7.642 16.507-14.349 26.186-19.865 3.599-2.051 4.854-6.631 2.803-10.229-2.052-3.599-6.633-4.853-10.23-2.802-8.91 5.078-17.123 11.067-24.58 17.788l-14.787-14.787c-2.93-2.928-7.678-2.928-10.607 0-2.929 2.93-2.929 7.678 0 10.607l14.799 14.799c-21.324 23.776-34.296 54.407-36.034 86.931h-20.904c-4.143 0-7.5 3.357-7.5 7.5s3.357 7.5 7.5 7.5h20.882c1.751 33.317 15.1 63.609 36.072 86.914l-14.816 14.816c-2.929 2.93-2.929 7.678 0 10.607 2.929 2.93 7.677 2.928 10.607 0l14.816-14.816c23.305 20.972 53.597 34.32 86.914 36.072v20.882c0 4.142 3.357 7.5 7.5 7.5zm-63.65-210.585c-4.143 0-7.5 3.357-7.5 7.5v46.255c0 9.953 4.582 17.72 14.008 23.742 4.893 3.126 10.417 4.716 16.419 4.724h.048c5.176 0 10.034-1.125 14.439-3.343 13.881-6.991 16.795-17.548 16.795-25.172v-46.206c0-4.143-3.357-7.5-7.5-7.5s-7.5 3.357-7.5 7.5v46.206c0 3.479-.971 7.962-8.542 11.775-2.293 1.154-4.881 1.739-7.693 1.739h-.027c-3.144-.004-5.879-.777-8.362-2.364-5.031-3.215-7.084-6.432-7.084-11.102v-46.254c-.001-4.143-3.359-7.5-7.501-7.5zm164.454-177.597c-4.657-4.656-10.848-7.221-17.433-7.221h-166.742c-6.585 0-12.775 2.564-17.433 7.221l-117.903 117.903c-4.656 4.657-7.221 10.848-7.221 17.433v166.742c0 6.585 2.564 12.775 7.221 17.433l117.903 117.903c4.657 4.656 10.848 7.221 17.433 7.221h89.271c4.143 0 7.5-3.357 7.5-7.5s-3.357-7.5-7.5-7.5h-89.271c-2.578 0-5.002-1.004-6.825-2.828l-117.904-117.904c-1.824-1.823-2.828-4.247-2.828-6.825v-166.742c0-2.578 1.004-5.002 2.828-6.825l117.904-117.904c1.823-1.824 4.247-2.828 6.825-2.828h166.742c2.578 0 5.002 1.004 6.825 2.828l117.904 117.904c1.824 1.823 2.828 4.247 2.828 6.825v166.742c0 2.578-1.004 5.002-2.828 6.825l-117.904 117.904c-1.823 1.824-4.247 2.828-6.825 2.828h-47.472c-4.143 0-7.5 3.357-7.5 7.5s3.357 7.5 7.5 7.5h47.472c6.585 0 12.775-2.564 17.433-7.221l117.903-117.903c4.656-4.657 7.221-10.848 7.221-17.433v-166.742c0-6.585-2.564-12.775-7.221-17.433zm143.795 101.267-127.159-127.159c-7.352-7.352-17.128-11.401-27.526-11.401h-179.828c-10.397 0-20.174 4.049-27.526 11.401l-127.159 127.159c-7.352 7.352-11.401 17.128-11.401 27.526v179.828c0 10.397 4.049 20.174 11.401 27.526l127.159 127.159c7.353 7.353 17.129 11.401 27.526 11.401h179.828c10.397 0 20.174-4.049 27.526-11.401l127.159-127.159c7.353-7.353 11.401-17.129 11.401-27.526v-179.828c0-10.398-4.049-20.174-11.401-27.526zm-3.599 207.354c0 6.392-2.489 12.4-7.009 16.919l-127.158 127.158c-4.519 4.52-10.527 7.009-16.919 7.009h-179.828c-6.392 0-12.4-2.489-16.919-7.009l-127.158-127.158c-4.52-4.519-7.009-10.527-7.009-16.919v-179.828c0-6.392 2.489-12.4 7.009-16.919l127.158-127.158c4.519-4.52 10.527-7.009 16.919-7.009h179.828c6.392 0 12.4 2.489 16.919 7.009l127.158 127.158c4.52 4.519 7.009 10.527 7.009 16.919zm-200.734-48.804c.021 0 .042 0 .063-.001 3.835-.026 7.241-2.483 8.491-6.164l21.948-66.067c1.307-3.931-.822-8.176-4.753-9.481-3.928-1.306-8.176.821-9.481 4.753l-16.392 49.341-17.203-49.56c-1.357-3.913-5.635-5.988-9.544-4.626-3.913 1.358-5.984 5.631-4.626 9.544l23 66.263c1.277 3.594 4.686 5.998 8.497 5.998z"/></g></svg>