<svg xmlns="http://www.w3.org/2000/svg" viewBox="0 0 50 50"><defs><style>.cls-1{fill:#eef5fc;}.cls-2{fill:#000064;opacity:0.15;}.cls-3{fill:#ed5448;}.cls-4{fill:none;stroke:#2e4369;stroke-linecap:round;stroke-linejoin:round;stroke-width:2px;}</style></defs><title>WeastAtivo 26</title><g id="Camada_2" data-name="Camada 2"><g id="Layer_1" data-name="Layer 1"><circle class="cls-1" cx="25" cy="25" r="24"/><path class="cls-2" d="M25,1A24,24,0,0,0,4.41,12.66,24,24,0,0,1,41.59,42.33,24,24,0,0,0,25,1Z"/><path class="cls-3" d="M25,28.46h0L31,25l-6-3.46h0a4,4,0,1,0,0,6.92Z"/><path class="cls-2" d="M25,21.54A4,4,0,0,0,19,25H31Z"/><path class="cls-3" d="M25,21.54h0L31,25l-6,3.46h0a4,4,0,1,1,0-6.92Z"/><path class="cls-2" d="M25,28.46A4,4,0,0,1,19,25H31Z"/><path class="cls-2" d="M23,29a4,4,0,0,1-4-4,3.75,3.75,0,0,1,.05-.47A4,4,0,1,0,25,28.47,3.93,3.93,0,0,1,23,29Z"/><circle class="cls-4" cx="25" cy="25" r="24"/><path class="cls-4" d="M25,28.46h0L31,25l-6-3.46h0a4,4,0,1,0,0,6.92Z"/></g></g></svg>