<svg xmlns="http://www.w3.org/2000/svg" viewBox="0 0 62 62.08"><defs><style>.cls-1{fill:#f5f9fd;}.cls-2{fill:#ff7843;}.cls-3{fill:#000064;opacity:0.15;}.cls-4{fill:none;stroke:#2e4369;stroke-linecap:round;stroke-linejoin:round;stroke-width:2px;}</style></defs><title>windspeedAtivo 29</title><g id="Camada_2" data-name="Camada 2"><g id="Layer_1" data-name="Layer 1"><path class="cls-1" d="M33.59,6.25A31.28,31.28,0,0,0,25,2.38V30.47a163.35,163.35,0,0,0,18-2.41V12.27C40.18,10.58,37.13,8.54,33.59,6.25Z"/><path class="cls-2" d="M9,1.08v30c6,0,11.27-.24,16-.61V2.38C18.47.53,12.63,1.08,9,1.08Z"/><path class="cls-2" d="M57,17.08c-4.82,0-9-1.85-14-4.81V28.06c5.84-1.11,10.32-2.27,14-3s4-2.88,4-4A3.77,3.77,0,0,0,57,17.08Z"/><path class="cls-3" d="M25,30.47a163.35,163.35,0,0,0,18-2.41c5.84-1.11,10.32-2.27,14-3s4-2.88,4-4a4.81,4.81,0,0,0-.38-1.84c1.22,3.11-9.79.88-13.62,1.84-13.88,2.6-28.5.69-38,.14v9.86C15,31.08,20.27,30.84,25,30.47Z"/><line class="cls-4" x1="25" y1="2.44" x2="25" y2="30.46"/><line class="cls-4" x1="43" y1="12.27" x2="43" y2="28.06"/><line class="cls-4" x1="1" y1="61.08" x2="17" y2="61.08"/><path class="cls-4" d="M9,61.08v-60c5.17,0,14.84-1.13,24.59,5.17S49.43,17.08,57,17.08a3.77,3.77,0,0,1,4,4c0,1.12-.29,3.38-4,4-8.82,1.7-22.22,6-48,6"/></g></g></svg>