<svg xmlns="http://www.w3.org/2000/svg" viewBox="0 0 50 50"><defs><style>.cls-1{fill:#eef5fc;}.cls-2{fill:#000064;opacity:0.15;}.cls-3{fill:#ed5448;}.cls-4{fill:none;stroke:#2e4369;stroke-linecap:round;stroke-linejoin:round;stroke-width:2px;}</style></defs><title>WnorthAtivo 25</title><g id="Camada_2" data-name="Camada 2"><g id="Layer_1" data-name="Layer 1"><circle class="cls-1" cx="25" cy="25" r="24"/><path class="cls-2" d="M25,1A24,24,0,0,0,4.41,12.66,24,24,0,0,1,41.59,42.33,24,24,0,0,0,25,1Z"/><path class="cls-3" d="M28.46,25h0L25,19l-3.46,6h0a4,4,0,1,0,6.92,0Z"/><path class="cls-2" d="M21.54,25A4,4,0,0,0,25,31V19Z"/><path class="cls-2" d="M25,31a4,4,0,0,1-4-4,3.75,3.75,0,0,1,.05-.47A4,4,0,1,0,27,30.47,3.93,3.93,0,0,1,25,31Z"/><circle class="cls-4" cx="25" cy="25" r="24"/><path class="cls-4" d="M28.46,25h0L25,19l-3.46,6h0a4,4,0,1,0,6.92,0Z"/></g></g></svg>